<?xml version="1.0" encoding="UTF-8"?>
<!DOCTYPE svg PUBLIC "-//W3C//DTD SVG 1.1//EN" "http://www.w3.org/Graphics/SVG/1.1/DTD/svg11.dtd">
<!-- Creator: CorelDRAW -->
<svg xmlns="http://www.w3.org/2000/svg" xml:space="preserve" width="200px" height="148px" style="shape-rendering:geometricPrecision; text-rendering:geometricPrecision; image-rendering:optimizeQuality; fill-rule:evenodd; clip-rule:evenodd"
viewBox="0 0 182.657 134.914"
 xmlns:xlink="http://www.w3.org/1999/xlink">
 <defs>
  <style type="text/css">
   <![CDATA[
    .str0 {stroke:#434242;stroke-width:0.335474}
    .fil1 {fill:#B82622}
    .fil0 {fill:#646B79}
    .fil3 {fill:#2B2A29;fill-rule:nonzero}
    .fil2 {fill:#434242;fill-rule:nonzero}
    .fil4 {fill:#646B79;fill-rule:nonzero}
   ]]>
  </style>
 </defs>
 <g id="Слой_x0020_1">
  <metadata id="CorelCorpID_0Corel-Layer"/>
  <g id="_305911000">
   <polygon id="_305910904" class="fil0" points="99.6293,45.6228 110.59,45.724 110.627,10.0145 112.839,12.2074 122.02,21.3079 122.009,34.1686 122,47.0289 112.804,56.1154 106.485,62.3265 109.044,68.2893 128.112,49.5402 128.136,18.8064 109.29,0.127234 103.629,0.195473 103.636,36.1859 96.6523,21.6879 89.2565,21.5897 "/>
   <polygon id="_305910880" class="fil1" points="81.9165,22.6665 70.9555,22.5653 70.9189,58.2748 68.7071,56.0819 59.5256,46.9814 59.5366,34.1207 59.5463,21.2604 68.7414,12.1739 75.0609,5.96282 72.5021,0 53.4342,18.7491 53.4096,49.4829 72.256,68.1621 77.9168,68.0938 77.9102,32.1034 84.8935,46.6015 92.2894,46.6996 "/>
  </g>
  <path class="fil2 str0" d="M28.5536 95.0414l0 0 4.70897 0c1.31328,0 2.29329,-0.0228933 2.9365,-0.0686798 0.819315,-0.0576734 1.42423,-0.157171 1.81473,-0.291009 0.807868,-0.329311 1.44316,-0.84617 1.9063,-1.54662 0.463589,-0.704408 0.692962,-1.4819 0.692962,-2.33555 0,-1.01831 -0.291009,-1.90278 -0.869064,-2.64902 -0.585539,-0.750635 -1.36259,-1.22919 -2.33511,-1.43567 0.765604,-0.302455 1.36303,-0.765604 1.79536,-1.39385 0.432771,-0.596986 0.651137,-1.26309 0.651137,-1.99832 0,-0.746233 -0.180064,-1.41278 -0.540193,-1.99832 -0.340317,-0.582017 -0.826799,-1.04517 -1.4546,-1.38989 -0.44774,-0.267675 -0.987933,-0.455224 -1.61574,-0.562646 -0.539753,-0.0726421 -1.23271,-0.110944 -2.08637,-0.110944l-5.33677 0 -0.268115 0 0 1.378 0 14.4025zm5.33677 -14.4025l0 0c1.5585,0 2.66486,0.187989 3.32305,0.559124 0.735226,0.421324 1.10284,1.16756 1.10284,2.24354 0,1.06057 -0.383022,1.79932 -1.14466,2.22021 -0.674031,0.371575 -1.81473,0.559124 -3.41902,0.559124l-3.70563 0 0 -5.582 3.84343 0zm-3.84343 13.0245l0 0 0 -6.08741 4.73935 0c1.38989,0 2.45398,0.268115 3.18525,0.803906 0.719817,0.540193 1.07951,1.32869 1.07951,2.37386 0,1.07554 -0.359688,1.83366 -1.07951,2.28184 -0.658181,0.416922 -1.75706,0.627804 -3.30015,0.627804l-4.62444 0zm25.3134 -14.3911l0 0 0 0.964599 -8.68271 11.5734 0 -12.538 -1.51624 0 0 15.7691 1.51624 0 0 -1.01083 8.68271 -11.5959 0 12.6067 1.5158 0 0 -15.7691 -1.5158 0zm6.66106 15.7691l0 0 1.49335 0 0 -5.69646 2.557 -2.46939 6.81867 8.16585 1.88341 0 -7.66836 -9.13045 6.6615 -6.63861 -1.95253 0 -8.29969 8.20812 0 -8.20812 -1.49335 0 0 15.7691zm21.3167 0l0 0 0 -14.4025 5.16067 0 0 -1.378 -11.7914 0 0 1.378 5.13734 0 0 14.4025 1.49335 0zm15.0453 -14.9075l0 0c2.01373,0 3.56431,0.723339 4.6557,2.17442 0.953152,1.27102 1.43171,2.89424 1.43171,4.8657 0,1.95649 -0.478557,3.57179 -1.43171,4.84281 -1.10284,1.45108 -2.65694,2.17486 -4.6557,2.17486 -2.0287,0 -3.57927,-0.72378 -4.65526,-2.17486 -0.937744,-1.27102 -1.40882,-2.88631 -1.40882,-4.84281 0,-1.98687 0.471073,-3.61009 1.40882,-4.8657 1.07598,-1.45108 2.62656,-2.17442 4.65526,-2.17442zm0 -1.24064l0 0c-2.45002,0 -4.35632,0.869064 -5.71583,2.60323 -1.16756,1.51228 -1.74913,3.40361 -1.74913,5.67753 0,2.24354 0.581577,4.12343 1.74913,5.63174 1.35951,1.74957 3.26581,2.62612 5.71583,2.62612 2.43505,0 4.33387,-0.876548 5.6969,-2.62612 1.19441,-1.50831 1.7914,-3.3882 1.7914,-5.63174 0,-2.25851 -0.596986,-4.14985 -1.7914,-5.67753 -1.36303,-1.73417 -3.26185,-2.60323 -5.6969,-2.60323zm11.5083 16.1442l0 0 1.49335 0 0 -6.84113 3.52204 0c2.04807,0 3.59116,-0.375097 4.62092,-1.12177 1.01831,-0.750195 1.52769,-1.86448 1.52769,-3.34594 0,-1.48146 -0.455664,-2.59574 -1.36699,-3.34594 -0.911328,-0.746673 -2.26643,-1.12177 -4.05783,-1.12177l-5.73917 0 0 15.7765zm1.49335 -8.15044l0 0 0 -6.29389 4.19959 0c1.33221,0 2.32411,0.245222 2.96688,0.738748 0.643213,0.509375 0.965039,1.29787 0.965039,2.37386 0,1.12177 -0.383022,1.93316 -1.14466,2.44254 -0.719817,0.493966 -1.86448,0.738748 -3.43795,0.738748l-3.5489 0zm24.3716 -7.61465l0 0 0 0.964599 -8.68271 11.5734 0 -12.538 -1.51624 0 0 15.7691 1.51624 0 0 -1.01083 8.68271 -11.5959 0 12.6067 1.5158 0 0 -15.7691 -1.5158 0zm18.3071 15.7884l0 0 0 -15.2945 -5.51288 0c-1.07202,0 -1.85656,0.0303776 -2.35052,0.0915731 -0.762082,0.0884913 -1.39737,0.283524 -1.90278,0.582017 -0.627804,0.34472 -1.12925,0.830762 -1.50083,1.46253 -0.34428,0.582017 -0.51686,1.20586 -0.51686,1.86448 0,0.853655 0.225851,1.61177 0.674031,2.2704 0.463148,0.688999 1.11781,1.18649 1.97146,1.48542 -0.792459,0.252266 -1.32825,0.696484 -1.61574,1.32429 -0.191071,0.432771 -0.340758,1.26353 -0.44774,2.48876l-0.180064 1.97542c-0.0418242,0.386544 -0.110944,0.70793 -0.198995,0.964599 -0.0920133,0.237298 -0.202958,0.424846 -0.336795,0.559124l0 0.225851 1.68045 0c0.0766044,-0.180064 0.141762,-0.409878 0.202958,-0.696924 0.0576734,-0.268115 0.110944,-0.604911 0.157171,-1.00686l0.179624 -1.66152c0.088051,-1.45108 0.333273,-2.39279 0.739188,-2.82556 0.417362,-0.44774 1.30139,-0.67359 2.64549,-0.67359l4.81991 0 0 6.86446 1.49291 0zm-1.49291 -8.24246l0 0 -4.39903 0c-1.49687,0 -2.59574,-0.237738 -3.29619,-0.716295 -0.688999,-0.493526 -1.03372,-1.25165 -1.03372,-2.26643 0,-0.375097 0.10346,-0.754157 0.313902,-1.14466 0.225851,-0.401953 0.532269,-0.730824 0.918813,-0.987492 0.360129,-0.252706 0.823277,-0.417362 1.39341,-0.490004 0.34472,-0.0462268 0.942146,-0.0691201 1.7958,-0.0691201l4.30702 0 0 5.67401z"/>
  <path class="fil3" d="M28.4238 76.3363l0.401953 0 0 -2.05863 2.51694 0 0 2.05863 0.401953 0 0 -4.21897 -0.401953 0 0 1.80593 -2.51694 0 0 -1.80593 -0.401953 0 0 4.21897zm5.862 0l0.420884 0 0.503212 -1.28422 1.98995 0 0.497488 1.28422 0.425727 0 -1.67825 -4.21897 -0.486042 0 -1.67297 4.21897zm1.06234 -1.63247l0.851013 -2.1665 0.857617 2.1665 -1.70863 0zm7.01943 1.11605l1.37316 -3.70255 -0.39623 0 -0.976926 2.64681 -0.976926 -2.64681 -0.39623 0 1.17548 3.11481 -0.114026 0.407676c-0.0717616,0.167737 -0.141322,0.283524 -0.210002,0.348242 -0.0840887,0.088051 -0.197234,0.132077 -0.341638,0.132077l-0.143523 -0.0246543 -0.114026 -0.01717 0 0.335915c0.0440255,0.0123271 0.0858498,0.0202517 0.125473,0.0233335 0.0440255,0.00836485 0.088051,0.0123271 0.132077,0.0123271 0.211763,0 0.387865,-0.0541514 0.527866,-0.161574 0.123712,-0.0964159 0.235096,-0.252266 0.335474,-0.468432zm7.31352 -3.70255l-0.365412 0 0 1.78215c0,0.312581 -0.0920133,0.562206 -0.27604,0.749755 -0.176102,0.184467 -0.403274,0.27648 -0.683716,0.27648 -0.306418,0 -0.514658,-0.0818875 -0.622961,-0.245662 -0.0920133,-0.136039 -0.1378,-0.37906 -0.1378,-0.725981l0 -1.83674 -0.365412 0 0 1.84159c0,0.228492 0.0039623,0.390506 0.0123271,0.486482 0.0193712,0.148806 0.0594344,0.268556 0.119309,0.360569 0.0801264,0.132077 0.203838,0.235537 0.371575,0.31126 0.163775,0.081007 0.348242,0.12107 0.55164,0.12107 0.215725,0 0.411198,-0.0479878 0.5873,-0.144404 0.175662,-0.0920133 0.324468,-0.228492 0.443777,-0.407676l0 1.65008 0.365412 0 0 -4.21897zm3.29751 4.21897l0.401953 0 0 -2.05863 2.51694 0 0 2.05863 0.401953 0 0 -4.21897 -0.401953 0 0 1.80593 -2.51694 0 0 -1.80593 -0.401953 0 0 4.21897zm7.81145 -3.99135c0.53491,0 0.94831,0.194593 1.24064,0.582458 0.256229,0.335915 0.383903,0.770447 0.383903,1.30183 0,0.524784 -0.127674,0.956674 -0.383903,1.29699 -0.292329,0.387865 -0.705729,0.581577 -1.24064,0.581577 -0.544155,0 -0.961517,-0.193712 -1.25341,-0.581577 -0.251826,-0.340317 -0.377299,-0.772208 -0.377299,-1.29699 0,-0.531388 0.125473,-0.96592 0.377299,-1.30183 0.291889,-0.387865 0.709251,-0.582458 1.25341,-0.582458zm0 -0.330191c-0.659943,0 -1.16976,0.232895 -1.52857,0.696484 -0.316103,0.403714 -0.473715,0.909567 -0.473715,1.518 0,0.600508 0.157611,1.1024 0.473715,1.50699 0.363211,0.467991 0.872586,0.701326 1.52857,0.701326 0.650697,0 1.15743,-0.233335 1.51624,-0.701326 0.320066,-0.404595 0.479878,-0.906485 0.479878,-1.50699 0,-0.608433 -0.159813,-1.11429 -0.479878,-1.518 -0.358808,-0.463589 -0.865542,-0.696484 -1.51624,-0.696484zm5.80917 1.94329l-2.51782 0 0 0.331952 2.51782 0 0 -0.331952zm1.7324 2.37826l0.401072 0 0 -3.85928 2.51738 0 0 3.85928 0.401953 0 0 -4.21897 -3.3204 0 0 4.21897zm6.37181 0l0.401513 0 0 -1.83014 0.941706 0c0.55164,0 0.962838,-0.100378 1.23492,-0.300254 0.272078,-0.196794 0.407236,-0.494847 0.407236,-0.894158 0,-0.39667 -0.121951,-0.694723 -0.365412,-0.894158 -0.239059,-0.200756 -0.599628,-0.300254 -1.07907,-0.300254l-1.54089 0 0 4.21897zm0.401513 -2.17882l0 -1.68662 1.12177 0c0.354846,0 0.618999,0.0664785 0.791139,0.198555 0.171259,0.136479 0.257549,0.348242 0.257549,0.636169 0,0.300254 -0.102579,0.51818 -0.305977,0.653339 -0.191511,0.132077 -0.497048,0.198555 -0.916611,0.198555l-0.947869 0zm7.17 -1.81253c0.53535,0 0.94875,0.194593 1.24108,0.582458 0.256229,0.335915 0.383903,0.770447 0.383903,1.30183 0,0.524784 -0.127674,0.956674 -0.383903,1.29699 -0.292329,0.387865 -0.705729,0.581577 -1.24108,0.581577 -0.543715,0 -0.961077,-0.193712 -1.25297,-0.581577 -0.251826,-0.340317 -0.377299,-0.772208 -0.377299,-1.29699 0,-0.531388 0.125473,-0.96592 0.377299,-1.30183 0.291889,-0.387865 0.709251,-0.582458 1.25297,-0.582458zm0 -0.330191c-0.659502,0 -1.16932,0.232895 -1.52813,0.696484 -0.316103,0.403714 -0.474155,0.909567 -0.474155,1.518 0,0.600508 0.158052,1.1024 0.474155,1.50699 0.363211,0.467991 0.872586,0.701326 1.52813,0.701326 0.651137,0 1.15787,-0.233335 1.51668,-0.701326 0.320066,-0.404595 0.479438,-0.906485 0.479438,-1.50699 0,-0.608433 -0.159372,-1.11429 -0.479438,-1.518 -0.358808,-0.463589 -0.865542,-0.696484 -1.51668,-0.696484zm4.67023 4.32154l2.96776 0 0 -0.366733 -2.56581 0 0 -1.60209 2.27216 0 0 -0.360569 -2.27216 0 0 -1.52372 2.487 0 0 -0.365852 -2.88895 0 0 4.21897zm6.15036 0l0.401072 0 0 -1.52416 0.68988 -0.660383 1.8231 2.18455 0.503652 0 -2.05643 -2.44298 1.77995 -1.77599 -0.521702 0 -2.21845 2.19599 0 -2.19599 -0.401072 0 0 4.21897zm7.78151 0l0 -3.85311 1.37888 0 0 -0.365852 -3.15971 0 0 0.365852 1.37976 0 0 3.85311 0.401072 0zm4.2806 0l0.401953 0 0 -2.05863 2.5165 0 0 2.05863 0.401953 0 0 -4.21897 -0.401953 0 0 1.80593 -2.5165 0 0 -1.80593 -0.401953 0 0 4.21897zm6.2098 -0.354405l0 -1.71039 1.08567 0c0.356166,0 0.627364,0.0717616 0.815353,0.216165 0.183586,0.144404 0.2756,0.350003 0.2756,0.618559 0,0.299814 -0.0920133,0.521262 -0.2756,0.665666 -0.179624,0.140441 -0.451702,0.210002 -0.815353,0.210002l-1.08567 0zm-0.389626 0.354405l1.49247 0c0.488243,0 0.859818,-0.110504 1.11561,-0.329751 0.251826,-0.212203 0.377739,-0.514218 0.377739,-0.906485 0,-0.352204 -0.125913,-0.636169 -0.377739,-0.852334 -0.264153,-0.228492 -0.635288,-0.342078 -1.11561,-0.342078l-1.09051 0 0 -1.78832 -0.401953 0 0 4.21897zm3.56166 0l0.401953 0 0 -4.21897 -0.401953 0 0 4.21897zm5.71935 -4.21897l0 0.25799 -2.31442 3.09631 0 -3.3543 -0.407236 0 0 4.21897 0.407236 0 0 -0.270317 2.31442 -3.10248 0 3.37279 0.407236 0 0 -4.21897 -0.407236 0zm-1.76322 -0.894158l-0.401072 0c0,0.219247 0.0739629,0.393148 0.221448,0.521262 0.167297,0.152769 0.421324,0.228492 0.761201,0.228492 0.339437,0 0.595225,-0.0757239 0.766925,-0.228492 0.152328,-0.132077 0.228052,-0.305097 0.228052,-0.521262l-0.401072 0c0,0.139121 -0.0409437,0.254027 -0.12019,0.342078 -0.0994977,0.115787 -0.25799,0.174341 -0.473715,0.174341 -0.215285,0 -0.373777,-0.0607552 -0.472834,-0.180505 -0.0726421,-0.0920133 -0.108743,-0.203838 -0.108743,-0.335915zm8.09277 0.894158l0 4.21897 2.91361 0c0.176102,0 0.34428,0.088051 0.503652,0.264153 0.128114,0.147485 0.243901,0.347361 0.347802,0.600508l0.216165 0 -0.0717616 -0.864661c-0.165096,0 -0.301575,-0.0440255 -0.41428,-0.132077 -0.111825,-0.0840887 -0.168177,-0.186668 -0.168177,-0.306418l0 -3.78047 -0.407236 0 0 3.8584 -2.51122 0 0 -3.8584 -0.408557 0zm6.39691 4.21897l2.96776 0 0 -0.366733 -2.56581 0 0 -1.60209 2.27216 0 0 -0.360569 -2.27216 0 0 -1.52372 2.487 0 0 -0.365852 -2.88895 0 0 4.21897zm5.93508 0l0.401953 0 0 -2.05863 2.5165 0 0 2.05863 0.401953 0 0 -4.21897 -0.401953 0 0 1.80593 -2.5165 0 0 -1.80593 -0.401953 0 0 4.21897zm7.99679 0l0 -3.85311 1.37888 0 0 -0.365852 -3.15971 0 0 0.365852 1.37976 0 0 3.85311 0.401072 0zm4.51966 0l0.401953 0 0 -1.83014 0.941706 0c0.551199,0 0.962398,-0.100378 1.23492,-0.300254 0.272078,-0.196794 0.407236,-0.494847 0.407236,-0.894158 0,-0.39667 -0.121951,-0.694723 -0.365412,-0.894158 -0.239499,-0.200756 -0.599628,-0.300254 -1.07951,-0.300254l-1.54089 0 0 4.21897zm0.401953 -2.17882l0 -1.68662 1.12133 0c0.355286,0 0.619439,0.0664785 0.791139,0.198555 0.1717,0.136479 0.25799,0.348242 0.25799,0.636169 0,0.300254 -0.102579,0.51818 -0.305977,0.653339 -0.191511,0.132077 -0.497048,0.198555 -0.916611,0.198555l-0.947869 0z"/>
  <path class="fil3" d="M45.636 106.713l0 0 0.479878 0 0 -1.98995 0.821516 -0.86246 2.19115 2.85241 0.604911 0 -2.46411 -3.18965 2.14052 -2.31926 -0.626923 0 -2.66707 2.86782 0 -2.86782 -0.479878 0 0 5.50891zm7.38088 -5.20778l0 0c0.647175,0 1.14598,0.252706 1.49599,0.75944 0.306418,0.444217 0.460507,1.01127 0.460507,1.69983 0,0.683716 -0.154089,1.24812 -0.460507,1.6919 -0.353965,0.507174 -0.853655,0.75988 -1.49599,0.75988 -0.652018,0 -1.14995,-0.252706 -1.49555,-0.75988 -0.301575,-0.443777 -0.453023,-1.00818 -0.453023,-1.6919 0,-0.693842 0.151448,-1.26089 0.453023,-1.69983 0.3456,-0.506734 0.843529,-0.75944 1.49555,-0.75944zm0 -0.433211l0 0c-0.787176,0 -1.39957,0.303336 -1.8363,0.909127 -0.375538,0.528306 -0.562206,1.18913 -0.562206,1.98335 0,0.784094 0.186668,1.44051 0.562206,1.9675 0.436733,0.611074 1.04913,0.917492 1.8363,0.917492 0.782333,0 1.39297,-0.306418 1.83102,-0.917492 0.383462,-0.526985 0.575414,-1.18341 0.575414,-1.9675 0,-0.788937 -0.191951,-1.44976 -0.575414,-1.98335 -0.438054,-0.605791 -1.04869,-0.909127 -1.83102,-0.909127zm3.69814 5.64099l0 0 0.479878 0 0 -2.6882 3.02631 0 0 2.6882 0.479878 0 0 -5.51288 -0.479878 0 0 2.35933 -3.02631 0 0 -2.35933 -0.479878 0 0 5.51288zm9.29159 -1.81737l0 0c-0.0378619,0.475916 -0.198995,0.843969 -0.4834,1.1046 -0.283084,0.271637 -0.660383,0.408117 -1.1319,0.408117 -0.566608,0 -1.01347,-0.217046 -1.34058,-0.650257 -0.326229,-0.438494 -0.489564,-1.04164 -0.489564,-1.80945 0,-0.766484 0.161133,-1.36127 0.4834,-1.78523 0.320946,-0.417362 0.768686,-0.626043 1.3397,-0.626043 0.442897,0 0.803466,0.114907 1.08127,0.34516 0.279122,0.235096 0.442897,0.553401 0.490885,0.956234l0.482079 0c-0.0330191,-0.533589 -0.232455,-0.959316 -0.597867,-1.27762 -0.375097,-0.326229 -0.859818,-0.489123 -1.45636,-0.489123 -0.715855,0 -1.2807,0.254027 -1.6941,0.760761 -0.420884,0.51774 -0.631326,1.22523 -0.631326,2.12379 0,0.899001 0.208241,1.61045 0.625162,2.13348 0.4134,0.522583 0.975605,0.783654 1.68662,0.783654 0.62032,0 1.11693,-0.179184 1.49202,-0.536231 0.369374,-0.349122 0.575854,-0.830762 0.619879,-1.44184l-0.475916 0zm3.39657 1.81737l0 0 0 -5.03124 1.65844 0 0 -0.481639 -3.78884 0 0 0.481639 1.65052 0 0 5.03124 0.479878 0zm2.68644 -0.00132077l0 0 0.479878 0 0 -2.38971 1.1319 0c0.658181,0 1.15391,-0.131196 1.48498,-0.392267 0.32711,-0.261952 0.490885,-0.651137 0.490885,-1.16888 0,-0.5173 -0.146605,-0.906485 -0.439375,-1.16888 -0.29277,-0.260631 -0.728182,-0.391827 -1.30404,-0.391827l-1.84423 0 0 5.51155zm0.479878 -2.84713l0 0 0 -2.19907 1.34982 0c0.427928,0 0.746673,0.0858498 0.953152,0.25843 0.20648,0.177863 0.30994,0.453463 0.30994,0.829 0,0.391827 -0.122831,0.675351 -0.367613,0.853215 -0.231574,0.17258 -0.599187,0.25843 -1.10504,0.25843l-1.14026 0zm5.51596 2.17574l0 0 1.64964 -4.83488 -0.475035 0 -1.1746 3.456 -1.17592 -3.456 -0.474595 0 1.4119 4.06708 -0.136479 0.532709c-0.08629,0.219247 -0.170819,0.371575 -0.252266,0.454343 -0.100818,0.115347 -0.238618,0.17258 -0.410758,0.17258l-0.173461 -0.0308179 -0.136479 -0.0237738 0 0.441136c0.0528306,0.0149687 0.105661,0.0255348 0.158932,0.0308179 0.0475476,0.0105661 0.100818,0.0162894 0.158492,0.0162894 0.254467,0 0.463589,-0.0708811 0.626043,-0.212643 0.149687,-0.125913 0.284405,-0.330632 0.404595,-0.612835zm2.61071 0.67271l0 0 0.479878 0 0 -1.98995 0.821516 -0.86246 2.19159 2.85241 0.604911 0 -2.46411 -3.18965 2.14052 -2.31926 -0.627364 0 -2.66707 2.86782 0 -2.86782 -0.479878 0 0 5.50891zm5.23331 -5.51288l0 0 0 5.51288 3.49034 0c0.210002,0 0.411639,0.114907 0.60359,0.34516 0.158932,0.192392 0.300254,0.454784 0.425727,0.783654l0.252266 0 -0.0796862 -1.12881c-0.196794,0 -0.365852,-0.0572332 -0.504532,-0.173901 -0.134278,-0.109624 -0.201637,-0.244782 -0.201637,-0.401072l0 -4.9379 -0.487362 0 0 5.0396 -3.01135 0 0 -5.0396 -0.487362 0zm8.8663 0.0039623l0 0 0 0.337235 -2.79034 4.04286 0 -4.3801 -0.487362 0 0 5.50891 0.487362 0 0 -0.353085 2.79034 -4.05079 0 4.40387 0.486922 0 0 -5.50891 -0.486922 0zm5.53577 0l0 0 0 0.337235 -2.79034 4.04286 0 -4.3801 -0.487362 0 0 5.50891 0.487362 0 0 -0.353085 2.79034 -4.05079 0 4.40387 0.486922 0 0 -5.50891 -0.486922 0zm8.36881 3.69154l0 0c-0.0383022,0.475916 -0.199436,0.843969 -0.48384,1.1046 -0.283084,0.271637 -0.660383,0.408117 -1.1319,0.408117 -0.566608,0 -1.01347,-0.217046 -1.34058,-0.650257 -0.326229,-0.438494 -0.489564,-1.04164 -0.489564,-1.80945 0,-0.766484 0.161133,-1.36127 0.4834,-1.78523 0.320946,-0.417362 0.768686,-0.626043 1.3397,-0.626043 0.442897,0 0.803466,0.114907 1.08127,0.34516 0.279122,0.235096 0.442897,0.553401 0.490885,0.956234l0.482079 0c-0.0330191,-0.533589 -0.232455,-0.959316 -0.597867,-1.27762 -0.375097,-0.326229 -0.859818,-0.489123 -1.45636,-0.489123 -0.715855,0 -1.2807,0.254027 -1.6941,0.760761 -0.420444,0.51774 -0.631326,1.22523 -0.631326,2.12379 0,0.899001 0.208241,1.61045 0.625162,2.13348 0.4134,0.522583 0.975605,0.783654 1.68662,0.783654 0.62032,0 1.11693,-0.179184 1.49202,-0.536231 0.369374,-0.349122 0.575854,-0.830762 0.619879,-1.44184l-0.475476 0zm5.16772 -3.69154l0 0 0 0.337235 -2.7899 4.04286 0 -4.3801 -0.487362 0 0 5.50891 0.487362 0 0 -0.353085 2.7899 -4.05079 0 4.40387 0.487362 0 0 -5.50891 -0.487362 0zm5.90382 3.69154l0 0c-0.0383022,0.475916 -0.199436,0.843969 -0.48384,1.1046 -0.283084,0.271637 -0.660383,0.408117 -1.1319,0.408117 -0.566608,0 -1.01347,-0.217046 -1.34058,-0.650257 -0.326229,-0.438494 -0.489564,-1.04164 -0.489564,-1.80945 0,-0.766484 0.161133,-1.36127 0.4834,-1.78523 0.320946,-0.417362 0.768686,-0.626043 1.3397,-0.626043 0.442897,0 0.803466,0.114907 1.08127,0.34516 0.279122,0.235096 0.442897,0.553401 0.490885,0.956234l0.482079 0c-0.0330191,-0.533589 -0.232455,-0.959316 -0.597867,-1.27762 -0.375097,-0.326229 -0.859818,-0.489123 -1.45636,-0.489123 -0.715855,0 -1.2807,0.254027 -1.6941,0.760761 -0.420884,0.51774 -0.631326,1.22523 -0.631326,2.12379 0,0.899001 0.208241,1.61045 0.625162,2.13348 0.4134,0.522583 0.975605,0.783654 1.68662,0.783654 0.62032,0 1.11693,-0.179184 1.49202,-0.536231 0.369374,-0.349122 0.575854,-0.830762 0.619879,-1.44184l-0.475476 0zm3.39613 1.81737l0 0 0 -5.03124 1.65844 0 0 -0.481639 -3.78884 0 0 0.481639 1.65052 0 0 5.03124 0.479878 0zm2.68644 0l0 0 3.56519 0 0 -0.481199 -3.08531 0 0 -2.08637 2.73971 0 0 -0.473715 -2.73971 0 0 -1.98995 2.99902 0 0 -0.481639 -3.4789 0 0 5.51288zm5.07834 0l0 0 0.472394 0 0 -4.73318 1.61001 4.73318 0.418683 0 1.6175 -4.73318 0 4.73318 0.472394 0 0 -5.50891 -0.685477 0 -1.60649 4.70104 -1.61398 -4.70104 -0.685037 0 0 5.50891zm6.73899 -0.46535l0 0 0 -2.23077 1.31372 0c0.428368,0 0.755478,0.0937744 0.981769,0.282204 0.221448,0.187108 0.332393,0.456104 0.332393,0.806547 0,0.390506 -0.110944,0.680634 -0.332393,0.867743 -0.216165,0.183146 -0.543275,0.274279 -0.981769,0.274279l-1.31372 0zm-0.464909 0.46535l0 0 1.7936 0c0.590382,0 1.03988,-0.144404 1.34718,-0.43189 0.302455,-0.276921 0.453903,-0.671389 0.453903,-1.18517 0,-0.460067 -0.151448,-0.830321 -0.453903,-1.11385 -0.322707,-0.298053 -0.771767,-0.446859 -1.34806,-0.446859l-1.31284 0 0 -2.33511 -0.479878 0 0 5.51288zm4.28104 0l0 0 0.479878 0 0 -5.50891 -0.479878 0 0 5.50891z"/>
  <g id="_305911456">
   <g>
    <path id="_305911336" class="fil4" d="M174.533 111.809l0 20.4675c0,0.513778 -0.115787,0.901202 -0.338556,1.16227 -0.223209,0.261512 -0.619439,0.471954 -1.19749,0.640571l0 0.808308 9.66052 0 0 -0.808308c-0.578055,-0.168618 -0.974285,-0.37906 -1.19749,-0.640571 -0.222769,-0.261071 -0.338556,-0.648496 -0.338556,-1.16227l0 -28.5114c0,-0.497048 0.115787,-0.875668 0.338556,-1.13718 0.223209,-0.261071 0.619439,-0.480318 1.19749,-0.640131l0 -0.808749 -11.2045 0 0 0.808749c0.693842,0.176983 1.0324,0.556042 1.0324,1.13718 0,0.395789 -0.223209,0.825478 -0.668748,1.3058l-18.2886 19.3131 0 -19.9788c0,-0.497048 0.115787,-0.875668 0.338556,-1.13718 0.223209,-0.261071 0.619439,-0.480318 1.19749,-0.640131l0 -0.808749 -9.66008 0 0 0.808749c0.577615,0.159813 0.973844,0.37906 1.19705,0.640131 0.222769,0.261512 0.338556,0.640131 0.338556,1.13718l0 28.5114c0,0.513778 -0.115787,0.901202 -0.338556,1.16227 -0.223209,0.261512 -0.619439,0.471954 -1.19705,0.640571l0 0.808308 10.3865 0 0 -0.808308c-0.677112,-0.151888 -1.01567,-0.505853 -1.01567,-1.06146 0,-0.328871 0.39623,-0.901202 1.18076,-1.72668l18.5774 -19.4822z"/>
    <path id="_305911312" class="fil4" d="M130.809 121.76l8.09101 9.98807c0.693842,0.853215 1.33794,1.4753 1.94064,1.85964 0.594344,0.384343 1.27146,0.614596 2.0309,0.70705l0 0.599187 -12.4425 0 0 -0.599187c1.01567,-0.20736 1.51932,-0.607112 1.51932,-1.19133 0,-0.299374 -0.264593,-0.783654 -0.7929,-1.44404l-4.31802 -5.30904 -4.58262 5.30904c-0.429249,0.530067 -0.652018,0.98309 -0.652018,1.37536 0,0.537552 0.528306,0.960197 1.57699,1.26001l0 0.599187 -11.518 0 0 -0.599187c0.77617,-0.169058 1.37888,-0.399752 1.81649,-0.70705 0.437614,-0.307298 1.04032,-0.929379 1.81649,-1.85964l8.16585 -9.5192 -7.1832 -8.82844c-1.50303,-1.8592 -2.8238,-2.88103 -3.97154,-3.05757l0 -0.645854 12.3932 0 0 0.645854c-1.04869,0.268556 -1.56907,0.722018 -1.56907,1.35158 0,0.376858 0.247864,0.876108 0.751516,1.50611l3.55858 4.39507 3.5172 -4.10274c0.652458,-0.837365 0.98265,-1.44448 0.98265,-1.82134 0,-0.675792 -0.528306,-1.12177 -1.59372,-1.32869l0 -0.645854 11.7821 0 0 0.645854c-0.866862,0.161133 -1.51096,0.399311 -1.92347,0.70661 -0.412959,0.307298 -1.13938,1.09095 -2.18807,2.35096l-7.20786 8.35957zm-41.1344 -1.78259l9.27221 0c1.69234,0 2.87311,-0.153649 3.54185,-0.453023 0.96592,-0.430129 1.45328,-1.23756 1.45328,-2.40511 0,-1.168 -0.487362,-1.97454 -1.45328,-2.40467 -0.652018,-0.299814 -1.83278,-0.453463 -3.54185,-0.453463l-9.27221 0 0 5.71627zm0 4.56413l0 8.04434c0,0.460947 0.115787,0.814472 0.338556,1.06806 0.222769,0.245662 0.619439,0.453463 1.19705,0.614596l0 0.645414 -9.56102 0 0 -0.645414c0.561325,-0.13824 0.957995,-0.330632 1.18913,-0.584219 0.231134,-0.253587 0.346481,-0.614596 0.346481,-1.08303l0 -20.5916c0,-0.468432 -0.115347,-0.821956 -0.338556,-1.06013 -0.222769,-0.238178 -0.618999,-0.445538 -1.19705,-0.606672l0 -0.645854 17.6692 0c3.50883,0 6.14288,0.484281 7.91799,1.46033 1.03196,0.567929 1.84115,1.3824 2.4192,2.42757 0.58598,1.05265 0.875227,2.22857 0.875227,3.53437 0,2.50505 -0.916611,4.36425 -2.75776,5.58596 -1.84115,1.22171 -4.66494,1.8363 -8.45466,1.8363l-9.64379 0zm-23.8367 0.507174l-4.43381 -8.09849 -4.21897 8.09849 8.65278 0zm1.9653 3.54934l-12.476 0 -1.4119 2.74279c-0.346481,0.660823 -0.511577,1.18385 -0.511577,1.55234 0,0.722459 0.519941,1.18341 1.5519,1.37536l0 0.645414 -9.95725 0 0 -0.645414c0.611074,-0.0920133 1.06498,-0.261071 1.36215,-0.514658 0.305537,-0.261071 0.652458,-0.760761 1.05705,-1.50611l9.89121 -18.6241c0.371575,-0.699565 0.553401,-1.31416 0.553401,-1.84423 0,-0.615036 -0.445978,-1.09095 -1.35422,-1.43655l0 -0.645854 10.5269 0 0 0.645854c-0.883152,0.330191 -1.32913,0.837365 -1.32913,1.52901 0,0.491325 0.198115,1.09844 0.602709,1.82046l10.2628 18.0557c0.561766,0.98397 1.0073,1.62146 1.32957,1.90586 0.321827,0.291889 0.817114,0.491765 1.47794,0.614596l0 0.645414 -11.0473 0 0 -0.645414c1.05661,-0.161133 1.58536,-0.622081 1.58536,-1.36787 0,-0.460947 -0.20648,-1.0368 -0.602709,-1.72844l-1.51096 -2.57417z"/>
   </g>
   <path id="_305911408" class="fil4" d="M20.2865 134.914l-12.162 -23.2895 0 20.6783c0,0.513778 0.115787,0.901202 0.338556,1.16227 0.223209,0.261512 0.619439,0.471954 1.19749,0.640571l0 0.808308 -9.66052 0 0 -0.808308c0.578055,-0.168618 0.974285,-0.37906 1.19749,-0.640571 0.222769,-0.261071 0.338556,-0.648496 0.338556,-1.16227l0 -28.5114c0,-0.497048 -0.115787,-0.875668 -0.338556,-1.13718 -0.223209,-0.261071 -0.619439,-0.479878 -1.19749,-0.640131l0 -0.808749 12.6904 0 0 0.808749c-0.75944,0.193712 -1.13938,0.648936 -1.13938,1.35599 0,0.328871 0.115787,0.70793 0.338556,1.13718l8.98341 17.3509 9.10668 -17.0564c0.404595,-0.757239 0.602709,-1.30492 0.602709,-1.65052 0,-0.674031 -0.404595,-1.05309 -1.20542,-1.13718l0 -0.808749 12.4839 0 0 0.808749c-0.578055,0.160253 -0.974285,0.37906 -1.19705,0.640131 -0.222769,0.261512 -0.338556,0.640131 -0.338556,1.13718l0 28.5114c0,0.513778 0.115787,0.901202 0.338556,1.16227 0.222769,0.261512 0.618999,0.471954 1.19705,0.640571l0 0.808308 -10.3042 0 0 -0.808308c0.561766,-0.151888 0.957995,-0.353965 1.18913,-0.632206 0.231134,-0.269436 0.346481,-0.656861 0.346481,-1.17064l0 -20.6783 -12.8057 23.2895z"/>
  </g>
 </g>
</svg>
